<svg id="Layer_1" data-name="Layer 1" xmlns="http://www.w3.org/2000/svg" viewBox="0 0 826.72 826.75"><defs><style>.cls-1{fill:#383d3b;}.cls-2{fill:#fd654f;}.cls-3{fill:#8f947f;}</style></defs><title>logo_borderless</title><path class="cls-1" d="M420.06,834.19c-229.25,0-413.62-186-413.35-413.84s185-413,413.54-412.91C649,7.55,833.57,193.09,833.43,421.11,833.27,648.76,649,834.17,420.06,834.19ZM770.38,355.6c.67-54.49-43.49-103.3-103.22-103.45C610,252,564,298.59,564.06,355.83a103.08,103.08,0,0,0,103.19,103h.14C725.64,458.68,771,411,770.38,355.6ZM258.3,531.08c-57.2.6-103.46,45.06-103.41,103.74.06,57.92,46.21,102.94,103.24,103a102.64,102.64,0,0,0,103.25-102v-1C361.49,577.29,316.1,531.92,258.3,531.08ZM71.3,355.6c-.43,57.31,46.51,103.6,103.62,103.22A103.31,103.31,0,1,0,71.28,354.53v1.07Zm353.75-94.45C478.37,259.31,523.57,215,523.32,158,523.06,98.32,475,53.55,417.12,55c-55.74,1.35-104.43,48.59-100,111.5C320.73,216.82,365,264.38,425.05,261.15ZM579.22,528.76c-57-.63-103.24,47.25-103.12,103,.12,56.3,45.71,103.24,103,103.35A103.32,103.32,0,0,0,682.57,631.94v-.38C682.57,575.47,636.57,528.15,579.22,528.76ZM420.16,355.57c-35.76,0-65.28,29.28-65.34,64.86-.06,36.07,29.11,65.55,65,65.64s65.54-29.3,65.54-65.07C485.32,385,456,355.59,420.16,355.57Z" transform="translate(-6.71 -7.44)"/><path class="cls-2" d="M770.38,355.6c.63,55.43-44.74,103.08-103,103.21A103.09,103.09,0,0,1,564.06,356v-.13c0-57.24,46-103.82,103.1-103.68C726.89,252.3,771.05,301.11,770.38,355.6Z" transform="translate(-6.71 -7.44)"/><path class="cls-3" d="M258.3,531.08c57.8.84,103.19,46.21,103.08,103.73a102.63,102.63,0,0,1-102.27,103h-1c-57,0-103.18-45-103.24-103C154.84,576.14,201.1,531.68,258.3,531.08Z" transform="translate(-6.71 -7.44)"/><path class="cls-3" d="M71.28,355.6A102.73,102.73,0,0,1,173.34,252.2h1.07a103.31,103.31,0,1,1,.51,206.62C117.81,459.2,70.87,412.91,71.28,355.6Z" transform="translate(-6.71 -7.44)"/><path class="cls-3" d="M425.05,261.15c-60,3.23-104.32-44.33-107.89-94.69-4.47-62.91,44.22-110.15,100-111.5,57.9-1.41,105.94,43.36,106.2,103C523.57,215,478.37,259.31,425.05,261.15Z" transform="translate(-6.71 -7.44)"/><path class="cls-3" d="M579.22,528.76c57.35-.61,103.35,46.71,103.35,102.8A103.32,103.32,0,0,1,579.46,735.09h-.39c-57.26-.11-102.85-47-103-103.35C476,576,522.2,528.13,579.22,528.76Z" transform="translate(-6.71 -7.44)"/><path class="cls-2" d="M420.16,355.57c35.88,0,65.16,29.42,65.16,65.43,0,35.77-29.61,65.16-65.54,65.07s-65-29.57-65-65.64C354.88,384.82,384.4,355.55,420.16,355.57Z" transform="translate(-6.71 -7.44)"/></svg>