<svg id="Layer_1" data-name="Layer 1" xmlns="http://www.w3.org/2000/svg" viewBox="0 0 840.08 840.13"><defs><style>.cls-1{fill:#8f9480;}.cls-2{fill:#383d3b;}.cls-3{fill:#fd654f;}</style></defs><title>logo</title><path class="cls-1" d="M628.57,840.83H207.07c-2-1.54-4.48-1.17-6.76-1.45a230.17,230.17,0,0,1-63.09-16.55,225.18,225.18,0,0,1-135-178.1c-.62-4.64-.23-9.45-2.1-13.9V212.33c.28-1.45.66-2.88.81-4.34.8-7.83,1.59-15.66,3.14-23.37,12.2-60.44,43.12-108.76,93.88-144C136.39,13.9,179.41,1,226.11.89Q418.65.59,611.19.76A237.7,237.7,0,0,1,650,3.83c55.9,9.16,102.27,35.51,138.41,79C823,124.45,839.8,173.05,840,227c.36,129.48.13,259,.11,388.45A223.23,223.23,0,0,1,832.88,671Q815,740.39,760.57,787.06c-29.61,25.41-63.81,41.62-102,49.33C648.62,838.39,638.57,839.26,628.57,840.83ZM104.46,420.76c.07,174.38,141.74,316,315.72,315.54,174.61-.47,315.39-141.15,315.49-315.4S593.88,104.9,420,105.36C245.32,105.83,104.38,246.72,104.46,420.76Z" transform="translate(-0.07 -0.7)"/><path class="cls-2" d="M104.46,420.76c-.08-174,140.86-314.93,315.49-315.4,173.93-.46,315.84,141.38,315.72,315.54S594.79,735.83,420.18,736.3C246.2,736.73,104.57,595.14,104.46,420.76Zm437.33,82.47c-41.89-.89-78.85,33.8-79,78.3a78.88,78.88,0,0,0,78.46,79.3h.2c43.25.12,78.81-35.12,78.88-78.19C620.4,538.17,585.9,503.29,541.79,503.23ZM420.36,141.73c-42.18-.9-78.88,34.1-79,77.79-.15,44.14,34.7,79.57,78.44,79.8,43,.22,78.94-35.15,79.05-77.7C498.94,176.83,464.57,141.83,420.36,141.73Zm-124,521c43.67,0,78.39-35,78.81-78.56.4-42-34-79-78.68-79.07a78.82,78.82,0,0,0-1.9,157.63Zm391.21-291.9a78.69,78.69,0,1,0,0,.46ZM232.38,449.75c42.72.29,78.55-34.62,78.94-76.92.41-44.94-34.15-80.58-78.61-80.62-45,0-77.47,35.74-78.93,75.78a78.75,78.75,0,0,0,75.7,81.7C230.45,449.73,231.41,449.75,232.38,449.75ZM420,470.44c27.9,0,49.65-21.69,49.65-49.54s-21.64-49.2-49.5-49.82c-26.1-.58-50.17,22.41-49.75,49.67.44,27.89,21.75,49.67,49.6,49.69Z" transform="translate(-0.07 -0.7)"/><path class="cls-1" d="M541.79,503.23c44.11.06,78.61,34.94,78.54,79.4-.07,43.07-35.63,78.31-78.88,78.19a78.88,78.88,0,0,1-78.63-79.13v-.16C462.94,537,499.9,502.34,541.79,503.23Z" transform="translate(-0.07 -0.7)"/><path class="cls-1" d="M420.36,141.73c44.21.1,78.58,35.1,78.46,79.89-.11,42.55-36.1,77.92-79.05,77.7-43.74-.23-78.59-35.66-78.44-79.8C341.48,175.83,378.18,140.83,420.36,141.73Z" transform="translate(-0.07 -0.7)"/><path class="cls-1" d="M296.4,662.75a78.82,78.82,0,0,1-1.6-157.63h1.77c44.71.06,79.08,37,78.68,79.07C374.79,627.77,340.07,662.73,296.4,662.75Z" transform="translate(-0.07 -0.7)"/><path class="cls-3" d="M687.57,370.83a78.72,78.72,0,1,1-78.77-78.67h0a78.64,78.64,0,0,1,78.74,78.54Z" transform="translate(-0.07 -0.7)"/><path class="cls-1" d="M232.38,449.75a78.76,78.76,0,0,1-78.66-78.86c0-1,0-1.93.06-2.9,1.46-40,34-75.81,78.93-75.78,44.46,0,79,35.68,78.61,80.62C310.93,415.13,275.1,450,232.38,449.75Z" transform="translate(-0.07 -0.7)"/><path class="cls-3" d="M420,470.44c-27.85,0-49.16-21.8-49.6-49.69C370,393.49,394,370.5,420.14,371.08c27.86.62,49.5,21.86,49.5,49.82S447.89,470.46,420,470.44Z" transform="translate(-0.07 -0.7)"/></svg>